<svg data-v-423bf9ae="" xmlns="http://www.w3.org/2000/svg" viewBox="0 0 370.22723547437124 163" class="iconAbove"><!----><!----><!----><g data-v-423bf9ae="" id="f1014db0-9391-46b1-97df-1ad73eb16116" fill="#0C3507" transform="matrix(5.681817956043021,0,0,5.681817956043021,-7.159089695324354,80.50000306151128)"><path d="M2.62 14.35L2.62 10.01L6.76 10.01L6.76 8.81L2.62 8.81L2.62 5.78L7.21 5.78L7.21 4.58L1.26 4.58L1.26 14.35ZM10.04 14.35L10.04 9.59C10.04 8.88 10.74 8.40 11.94 8.40L12.59 8.40L12.59 7.10L12.15 7.10C10.99 7.10 10.35 7.77 10.11 8.48L10.04 8.48L10.04 7.10L8.74 7.10L8.74 14.35ZM18.42 14.35L19.73 14.35L19.73 7.10L18.42 7.10L18.42 12.05C18.42 12.96 17.58 13.38 16.76 13.38C15.74 13.38 15.22 12.75 15.22 11.54L15.22 7.10L13.92 7.10L13.92 11.73C13.92 13.50 14.84 14.52 16.32 14.52C17.53 14.52 18.09 13.86 18.35 13.16L18.42 13.16ZM25.17 14.35L25.17 13.24L23.73 13.24L23.73 8.20L25.28 8.20L25.28 7.10L23.73 7.10L23.73 5.10L22.55 5.10L22.55 6.43C22.55 6.92 22.40 7.10 21.91 7.10L21.27 7.10L21.27 8.20L22.43 8.20L22.43 12.98C22.43 13.82 22.90 14.35 23.80 14.35ZM30.83 14.52C33.36 14.52 35 12.75 35 9.46C35 6.17 33.36 4.41 30.83 4.41C28.29 4.41 26.66 6.17 26.66 9.46C26.66 12.75 28.29 14.52 30.83 14.52ZM30.83 13.30C29.20 13.30 28.11 12.12 28.11 10.26L28.11 8.67C28.11 6.80 29.20 5.63 30.83 5.63C32.45 5.63 33.54 6.80 33.54 8.67L33.54 10.26C33.54 12.12 32.45 13.30 30.83 13.30ZM38.23 14.35L38.23 9.38C38.23 8.50 39.06 8.06 39.91 8.06C40.94 8.06 41.44 8.69 41.44 9.91L41.44 14.35L42.74 14.35L42.74 9.72C42.74 7.95 41.83 6.93 40.35 6.93C39.26 6.93 38.64 7.49 38.30 8.29L38.23 8.29L38.23 7.10L36.93 7.10L36.93 14.35ZM47.29 14.35L47.29 13.24L46.26 13.24L46.26 3.99L44.95 3.99L44.95 13.02C44.95 13.82 45.42 14.35 46.31 14.35ZM49.50 5.59C50.05 5.59 50.29 5.29 50.29 4.87L50.29 4.68C50.29 4.26 50.05 3.96 49.50 3.96C48.96 3.96 48.72 4.26 48.72 4.68L48.72 4.87C48.72 5.29 48.96 5.59 49.50 5.59ZM48.85 14.35L50.15 14.35L50.15 7.10L48.85 7.10ZM53.75 14.35L53.75 9.38C53.75 8.50 54.57 8.06 55.43 8.06C56.45 8.06 56.95 8.69 56.95 9.91L56.95 14.35L58.25 14.35L58.25 9.72C58.25 7.95 57.34 6.93 55.86 6.93C54.77 6.93 54.15 7.49 53.82 8.29L53.75 8.29L53.75 7.10L52.44 7.10L52.44 14.35ZM63.24 14.52C64.60 14.52 65.65 13.89 66.15 12.95L65.31 12.24C64.92 12.98 64.26 13.41 63.35 13.41C62.05 13.41 61.31 12.54 61.31 11.34L61.31 11.05L66.42 11.05L66.42 10.50C66.42 8.47 65.27 6.93 63.24 6.93C61.22 6.93 59.95 8.43 59.95 10.72C59.95 13.02 61.22 14.52 63.24 14.52ZM63.24 7.98C64.33 7.98 65.03 8.79 65.03 10.00L65.03 10.14L61.31 10.14L61.31 10.04C61.31 8.85 62.10 7.98 63.24 7.98Z"></path></g><defs data-v-423bf9ae=""><linearGradient data-v-423bf9ae="" gradientTransform="rotate(25)" id="334c45ff-cdf5-4d1e-b026-b34b7745056b" x1="0%" y1="0%" x2="100%" y2="0%"><stop data-v-423bf9ae="" offset="0%" style="stop-color: rgb(90, 90, 45); stop-opacity: 1;"></stop><stop data-v-423bf9ae="" offset="100%" style="stop-color: rgb(13, 227, 13); stop-opacity: 1;"></stop></linearGradient></defs><g data-v-423bf9ae="" id="65fe7d78-dd32-49d8-8800-15f03697946d" transform="matrix(2.2678972462876374,0,0,2.2678972462876374,136.4493047191354,0)" stroke="none" fill="url(#334c45ff-cdf5-4d1e-b026-b34b7745056b)"><path d="M11.394 15.789l1.085-.045c-.008-.249.33-6.112-4.815-8.003l-.676 1.703c4.676 2.148 4.405 6.296 4.406 6.345zM23.799 5.853c-10.231 2.478-9.551 9.26-9.551 9.26 9.356-.261 9.551-9.26 9.551-9.26zm-1.823 2.022c-2.759 4.102-6.51 5.934-6.51 5.934 2.404-4.22 6.51-5.934 6.51-5.934zM10.649 38.853s1.966 1.955 4.203-.131l-2.305-.913-1.898 1.044zM41.151 0l-2.692 2.104c.171.253 2.532 7.285 1.573 13.443-1.097 4.913-3.794 9.167-7.808 12.303a22.19 22.19 0 0 1-5.072 2.981 20.106 20.106 0 0 1-2.536 4.088 25.213 25.213 0 0 0 9.565-4.641C43.615 22.905 46.229 10.232 41.151 0z"></path><path d="M35.851 3.922l-9.977 7.801a12.967 12.967 0 0 1-2.4 3.284c.234.15.465.309.69.48 3.301 2.501 5.093 6.851 4.457 10.829-.072.443-.176.923-.315 1.43.839-.466 1.653-1 2.433-1.608 6.921-5.41 8.838-14.71 5.112-22.216zm-7.879 11.804c-.255.33-.733.394-1.355-.071-.625-.465-1.152-1.283-.898-1.613.254-.33 1.196-.048 1.819.417.621.464.688.936.434 1.267zm3.119-6.665c.174-.362 1.125-.278 1.807.042.683.32.841.754.665 1.116-.173.362-.616.515-1.298.195-.684-.32-1.35-.992-1.174-1.353zm2.16 10.71c-.261.515-.898.724-1.867.248-.972-.476-1.907-1.455-1.648-1.969.261-.513 1.618-.369 2.587.106.969.475 1.186 1.1.928 1.615zm1.632-4.649c-.26.514-.896.723-1.867.247-.971-.475-1.906-1.454-1.646-1.969.26-.514 1.618-.369 2.588.106s1.185 1.101.925 1.616zM21.972 18.29c-1.358-1.03-2.788-1.354-4.24-1.279-1.914.1-3.895 1.512-5.637 1.425-1.571-.079-3.08-1.261-4.805-1.328a6.755 6.755 0 0 0-4.251 1.265C.646 20.1-.339 23.305.102 25.887c.462 2.719 2.182 5.575 4.199 7.692 2.438 2.556 5.09 3.316 8.385 1.388.557.357 1.424.927 2.122 1.051 5.767 1.016 9.69-6.666 10.264-10.254.415-2.6-.782-5.718-3.1-7.474zM2.465 25.54l.001-1.543c.371-3.179 2.871-5.12 2.871-5.12-.804 1.492-1.081 3.245-1.081 4.965l.067 1.536c.293 3.347 1.408 6.203 1.408 6.203-2.176-2.237-3.073-4.277-3.266-6.041z"></path></g><!----></svg>